<svg width="132" height="257" viewBox="0 0 132 257" fill="none" xmlns="http://www.w3.org/2000/svg">
<path d="M0 248.5L15.3001 256.618L14.6807 239.309L0 248.5ZM0 248.5L15.3001 256.618L14.6807 239.309L0 248.5ZM0 1.5L0 3C80.6996 3 124.834 60.8892 128.426 120.325C130.223 150.054 121.864 180.111 102.893 203.463C83.9401 226.793 54.3154 243.533 13.3679 246.522L13.4771 248.018L13.5863 249.514C55.2899 246.47 85.705 229.378 105.221 205.355C124.719 181.354 133.257 150.535 131.42 120.144C127.746 59.3367 82.4903 0 0 0L0 1.5ZM0 1.5V3C80.6996 3 124.834 60.8892 128.426 120.325C130.223 150.054 121.864 180.111 102.893 203.463C83.9401 226.793 54.3154 243.533 13.3679 246.522L13.4771 248.018L13.5863 249.514C55.2899 246.47 85.705 229.378 105.221 205.355C124.719 181.354 133.257 150.535 131.42 120.144C127.746 59.3367 82.4903 0 0 0V1.5Z" fill="#072422"/>
</svg>
