<svg width="133" height="258" viewBox="0 0 133 258" fill="none" xmlns="http://www.w3.org/2000/svg">
<path d="M132.164 249L116.864 257.118L117.483 239.809L132.164 249ZM132.164 249L116.864 257.118L117.483 239.809L132.164 249ZM132.164 2V3.5C51.4643 3.5 7.32993 61.3892 3.73804 120.825C1.94136 150.554 10.3003 180.611 29.2713 203.963C48.2238 227.293 77.8484 244.033 118.796 247.022L118.687 248.518L118.578 250.014C76.8739 246.97 46.4589 229.878 26.9428 205.855C7.4453 181.854 -1.09317 151.035 0.7435 120.644C4.41828 59.8367 49.6736 0.5 132.164 0.5V2ZM132.164 2V3.5C51.4643 3.5 7.32993 61.3892 3.73804 120.825C1.94136 150.554 10.3003 180.611 29.2713 203.963C48.2238 227.293 77.8484 244.033 118.796 247.022L118.687 248.518L118.578 250.014C76.8739 246.97 46.4589 229.878 26.9428 205.855C7.4453 181.854 -1.09317 151.035 0.7435 120.644C4.41828 59.8367 49.6736 0.5 132.164 0.5V2Z" fill="#072422"/>
</svg>
